<?xml version="1.0" standalone="no"?>
<!DOCTYPE svg PUBLIC "-//W3C//DTD SVG 20010904//EN"
 "http://www.w3.org/TR/2001/REC-SVG-20010904/DTD/svg10.dtd">
<svg version="1.0" xmlns="http://www.w3.org/2000/svg"
 width="542.000000pt" height="246.000000pt" viewBox="0 0 542.000000 246.000000"
 preserveAspectRatio="xMidYMid meet">

<g transform="translate(0.000000,246.000000) scale(0.100000,-0.100000)"
fill="#000000" stroke="none">
<path d="M2057 2248 c11 -13 232 -266 490 -563 258 -297 476 -545 484 -551 8
-6 36 -19 62 -28 27 -10 65 -35 86 -55 21 -20 50 -44 65 -54 30 -20 34 -52 10
-85 -18 -26 -26 -14 145 -199 l85 -93 480 0 481 1 -35 31 c-768 686 -1089 981
-1103 1011 -12 25 -17 63 -17 136 l0 102 -117 -3 -118 -3 -5 -70 -5 -71 -495
258 c-272 141 -499 257 -504 258 -5 0 0 -10 11 -22z"/>
<path d="M1471 1785 c-287 -262 -521 -481 -521 -488 1 -7 34 -47 74 -90 l73
-78 27 55 c36 74 93 110 164 103 26 -2 56 -7 67 -11 16 -5 95 62 415 354 217
199 404 370 414 380 22 21 31 9 -125 178 l-67 73 -521 -476z"/>
<path d="M2295 1649 c-49 -10 -100 -21 -112 -24 -22 -5 -23 -10 -23 -100 l0
-95 115 0 115 0 0 120 c0 66 -1 120 -2 119 -2 -1 -43 -9 -93 -20z"/>
<path d="M2045 1594 c-33 -8 -70 -16 -82 -19 -21 -5 -23 -11 -23 -76 l0 -70
93 3 92 3 0 84 c0 48 -4 85 -10 87 -5 1 -37 -4 -70 -12z"/>
<path d="M1947 1394 c-9 -10 -9 -142 1 -147 4 -3 45 -6 92 -8 l85 -4 0 80 0
80 -85 3 c-47 1 -89 0 -93 -4z"/>
<path d="M2167 1393 c-4 -3 -7 -41 -7 -83 l0 -77 61 -7 c34 -3 86 -6 115 -6
l54 0 0 90 0 90 -108 0 c-60 0 -112 -3 -115 -7z"/>
<path d="M1225 1256 c-91 -42 -125 -166 -69 -253 56 -86 122 -97 464 -77 371
22 466 17 505 -26 15 -16 13 -22 -24 -79 -22 -34 -43 -75 -46 -91 -6 -26 -11
-30 -38 -30 -18 0 -52 5 -75 11 -42 9 -46 8 -75 -21 -17 -16 -29 -30 -26 -31
2 0 73 -2 157 -2 97 -1 151 2 149 8 -2 6 -19 12 -38 15 -51 7 -47 31 13 82
106 89 123 94 191 54 28 -17 77 -30 147 -41 58 -9 108 -20 113 -24 4 -4 -9
-23 -28 -41 -30 -29 -45 -36 -93 -40 -90 -8 -59 -25 38 -22 54 2 102 -2 131
-11 57 -17 77 -10 57 22 -12 20 -19 22 -73 16 l-60 -6 35 30 c44 38 109 61
174 61 50 0 51 -1 75 -44 13 -25 21 -50 19 -57 -2 -7 -21 -13 -41 -13 -20 -1
-37 -5 -37 -11 0 -6 31 -9 79 -6 43 1 104 -3 135 -10 72 -16 92 -3 55 35 -25
25 -25 25 -73 8 -46 -16 -48 -16 -62 2 -8 11 -14 37 -14 58 0 32 5 40 32 54
30 16 34 15 72 -5 23 -12 72 -34 110 -49 69 -27 97 -52 57 -52 -11 0 -23 -5
-26 -10 -4 -7 23 -9 77 -8 46 1 104 -1 130 -6 l47 -9 -2 32 c-2 34 -8 36 -73
21 -25 -6 -53 -6 -73 0 -33 9 -201 118 -201 130 0 4 33 20 72 36 75 30 138 76
138 100 0 7 -9 18 -20 24 -11 6 -42 30 -69 54 -36 32 -69 49 -132 69 -46 15
-95 28 -109 29 -22 3 -25 -1 -22 -24 1 -16 0 -28 -3 -28 -4 0 -27 14 -51 31
-25 17 -48 28 -51 25 -4 -3 -18 4 -31 16 -17 16 -26 19 -29 11 -7 -19 -27 -16
-57 8 -24 19 -31 18 -27 -3 2 -12 -5 -10 -45 14 -32 19 -37 20 -31 5 8 -20 0
-21 -33 -2 -32 18 -40 18 -40 1 0 -11 -9 -13 -35 -9 -20 3 -35 1 -35 -4 0 -6
-11 -8 -25 -5 -15 2 -25 0 -25 -7 0 -6 -13 -11 -30 -11 -20 0 -30 -5 -30 -15
0 -10 -10 -15 -30 -15 -16 0 -30 -4 -30 -10 0 -5 -9 -10 -20 -10 -10 0 -23 -7
-28 -16 -9 -15 -18 -15 -126 1 -158 24 -263 17 -425 -30 -191 -54 -325 -77
-371 -65 -47 13 -90 61 -90 100 0 44 44 90 86 90 66 0 109 -75 66 -113 -23
-21 -65 -22 -82 -2 -17 20 -9 49 15 53 16 3 18 1 8 -9 -19 -19 -16 -39 6 -39
47 0 53 74 7 86 -81 20 -125 -84 -54 -130 48 -30 102 -24 144 18 26 26 34 42
34 70 0 101 -117 183 -205 142z"/>
<path d="M947 574 c-4 -4 -7 -16 -7 -26 0 -14 8 -18 40 -18 l40 0 0 -105 0
-105 25 0 25 0 0 105 0 105 41 0 c36 0 40 2 37 23 -3 21 -8 22 -98 25 -53 1
-99 0 -103 -4z"/>
<path d="M1274 572 c-11 -7 -114 -227 -114 -243 0 -5 11 -9 23 -9 16 0 28 9
35 25 11 23 17 25 77 25 60 0 66 -2 77 -25 7 -16 19 -25 35 -25 12 0 23 2 23
5 0 9 -91 211 -106 233 -15 23 -31 27 -50 14z m47 -111 c9 -22 15 -42 11 -45
-8 -9 -70 -7 -76 2 -6 11 33 97 41 89 3 -4 14 -24 24 -46z"/>
<path d="M1467 574 c-4 -4 -7 -63 -7 -131 l0 -123 90 0 c83 0 90 2 90 20 0 16
-8 19 -62 22 l-63 3 -5 105 c-4 84 -8 105 -20 108 -9 1 -19 0 -23 -4z"/>
<path d="M1674 567 c-2 -7 -3 -65 -2 -128 3 -109 4 -114 25 -117 19 -3 22 2
25 35 l3 38 63 5 c48 4 67 10 78 25 41 56 20 127 -43 144 -55 15 -142 14 -149
-2z m154 -49 c7 -7 12 -21 12 -33 0 -33 -20 -45 -72 -45 l-48 0 0 38 c0 21 3
42 7 45 11 12 88 8 101 -5z"/>
<path d="M2006 558 c-14 -22 -106 -223 -106 -233 0 -3 11 -5 23 -5 16 0 28 9
35 25 11 23 17 25 77 25 60 0 66 -2 77 -25 7 -16 19 -25 35 -25 12 0 23 4 23
9 0 4 -24 62 -54 127 -58 128 -80 148 -110 102z m47 -75 c8 -16 18 -38 21 -50
7 -21 4 -23 -33 -23 -22 0 -42 3 -44 8 -4 7 31 92 38 92 3 0 11 -12 18 -27z"/>
<path d="M2283 574 c-16 -7 -18 -239 -4 -249 6 -3 11 16 13 42 3 45 5 48 32
51 23 3 39 -6 82 -49 61 -60 84 -61 30 -1 -39 43 -43 52 -23 52 24 0 57 45 57
76 0 49 -37 75 -112 80 -35 2 -69 1 -75 -2z m153 -39 c19 -25 18 -60 -2 -79
-11 -11 -35 -16 -80 -16 l-64 0 0 53 c0 30 3 57 8 61 4 4 33 6 66 4 42 -3 62
-10 72 -23z"/>
<path d="M2517 573 c-4 -3 -7 -62 -7 -130 l0 -123 90 0 c53 0 90 4 90 10 0 6
-33 10 -80 10 l-80 0 0 50 0 50 75 0 c43 0 75 4 75 10 0 6 -32 10 -76 10 l-75
0 3 48 3 47 78 3 c46 2 75 7 72 12 -7 11 -158 14 -168 3z"/>
<path d="M2783 570 c-12 -5 -29 -20 -39 -34 -15 -24 -15 -28 0 -51 10 -15 33
-28 58 -35 74 -19 83 -22 96 -32 6 -6 12 -21 12 -33 0 -46 -67 -65 -126 -35
-52 27 -65 25 -31 -5 23 -20 39 -25 83 -25 63 0 94 23 94 70 0 36 -26 55 -97
70 -28 6 -59 20 -69 32 -18 19 -18 20 9 44 32 27 83 32 113 9 22 -17 34 -19
34 -5 0 15 -56 40 -87 39 -15 0 -38 -4 -50 -9z"/>
<path d="M3058 574 c-5 -4 -8 -63 -8 -131 l0 -123 60 0 c34 0 74 7 89 14 82
43 87 169 8 221 -26 17 -138 31 -149 19z m113 -24 c60 -17 90 -84 65 -144 -20
-48 -51 -66 -113 -66 l-53 0 0 103 c0 57 3 107 7 110 9 10 53 8 94 -3z"/>
<path d="M3317 573 c-4 -3 -7 -62 -7 -130 l0 -123 90 0 c53 0 90 4 90 10 0 6
-33 10 -80 10 l-80 0 0 50 0 50 76 0 c47 0 73 4 69 10 -3 6 -38 10 -76 10
l-70 0 3 48 3 47 78 3 c46 2 75 7 72 12 -7 11 -158 14 -168 3z"/>
<path d="M3728 574 c-5 -4 -8 -52 -8 -107 l0 -99 -80 98 c-44 55 -85 101 -90
102 -6 2 -10 -44 -10 -122 0 -77 4 -126 10 -126 6 0 10 40 10 100 0 55 3 100
8 99 4 0 43 -45 87 -100 l80 -101 3 66 c4 94 -2 199 -10 190z"/>
<path d="M3864 566 c-47 -21 -74 -61 -74 -113 0 -82 48 -133 125 -133 38 0
109 30 88 37 -7 2 -21 0 -32 -6 -33 -18 -96 -13 -124 9 -28 22 -49 80 -40 108
26 83 92 114 163 77 19 -10 30 -11 30 -5 0 13 -61 40 -87 40 -10 -1 -32 -7
-49 -14z"/>
<path d="M4067 573 c-4 -3 -7 -62 -7 -130 l0 -123 91 0 c57 0 88 4 84 10 -3 6
-40 10 -81 10 l-74 0 0 50 0 50 70 0 c40 0 70 4 70 10 0 6 -30 10 -70 10 l-70
0 0 50 0 50 75 0 c43 0 75 4 75 10 0 11 -152 14 -163 3z"/>
<path d="M4318 565 c-30 -17 -43 -45 -33 -74 6 -19 56 -42 117 -55 15 -3 34
-13 42 -22 57 -56 -65 -107 -135 -55 -23 17 -29 18 -29 7 0 -44 127 -62 174
-25 53 41 20 99 -68 119 -64 14 -86 27 -86 50 0 44 92 67 138 34 33 -23 38
-10 6 15 -31 25 -86 27 -126 6z"/>
<path d="M2984 445 c0 -72 1 -99 3 -62 2 37 2 96 0 130 -2 34 -3 4 -3 -68z"/>
</g>
</svg>
